<svg height="682.66669pt" viewBox="-21 -21 682.66669 682.66669" width="682.66669pt" xmlns="http://www.w3.org/2000/svg"><path d="m621.25 0h-132.5v152.5h151.25v-133.75c0-10.503906-8.246094-18.75-18.75-18.75zm-602.5 0c-10.503906 0-18.75 8.246094-18.75 18.75v133.75h451.25v-152.5zm113.75 115h-37.5c-10.503906 0-18.75-8.25-18.75-18.75 0-10.503906 8.246094-18.75 18.75-18.75h37.5c10.503906 0 18.75 8.246094 18.75 18.75 0 10.5-8.246094 18.75-18.75 18.75zm112.5 0h-37.5c-10.503906 0-18.75-8.25-18.75-18.75 0-10.503906 8.246094-18.75 18.75-18.75h37.5c10.503906 0 18.75 8.246094 18.75 18.75 0 10.5-8.246094 18.75-18.75 18.75zm112.5 0h-37.5c-10.503906 0-18.75-8.25-18.75-18.75 0-10.503906 8.246094-18.75 18.75-18.75h37.5c10.503906 0 18.75 8.246094 18.75 18.75 0 10.5-8.246094 18.75-18.75 18.75zm-357.5 75v431.25c0 10.5 8.246094 18.75 18.75 18.75h602.5c10.503906 0 18.75-8.25 18.75-18.75v-431.25zm357.5 150h18.75v-93.75c0-10.503906 8.246094-18.75 18.75-18.75s18.75 8.246094 18.75 18.75v93.75h18.75c10.503906 0 18.75 8.246094 18.75 18.75 0 10.5-8.246094 18.75-18.75 18.75h-18.75v18.75c0 10.5-8.246094 18.75-18.75 18.75s-18.75-8.25-18.75-18.75v-18.75h-18.75c-10.503906 0-18.75-8.25-18.75-18.75 0-10.503906 8.246094-18.75 18.75-18.75zm0 112.5c10.503906 0 18.75 8.246094 18.75 18.75 0 10.5-8.246094 18.75-18.75 18.75s-18.75-8.25-18.75-18.75c0-10.503906 8.246094-18.75 18.75-18.75zm-56.25 93.75c0 10.5-8.246094 18.75-18.75 18.75h-187.5c-10.503906 0-18.75-8.25-18.75-18.75v-75c0-10.503906 8.246094-18.75 18.75-18.75h187.5c10.503906 0 18.75 8.246094 18.75 18.75zm-18.75-168.75c10.503906 0 18.75 8.246094 18.75 18.75 0 10.5-8.246094 18.75-18.75 18.75h-187.5c-10.503906 0-18.75-8.25-18.75-18.75v-150c0-10.503906 8.246094-18.75 18.75-18.75s18.75 8.246094 18.75 18.75v67.5l43.125-43.125c7.125-7.5 19.125-7.5 26.25 0l24.375 24 61.878906-61.5c7.125-7.5 19.121094-7.5 26.246094 0 7.5 7.125 7.5 19.125 0 26.25l-75 75c-7.125 7.5-19.121094 7.5-26.246094 0l-24.378906-24-56.25 55.875v11.25zm187.5 187.5h-112.5c-10.503906 0-18.75-8.25-18.75-18.75 0-10.503906 8.246094-18.75 18.75-18.75h112.5c10.503906 0 18.75 8.246094 18.75 18.75 0 10.5-8.246094 18.75-18.75 18.75zm75 0c-10.503906 0-18.75-8.25-18.75-18.75 0-10.503906 8.246094-18.75 18.75-18.75s18.75 8.246094 18.75 18.75c0 10.5-8.246094 18.75-18.75 18.75zm0-75h-112.5c-10.503906 0-18.75-8.25-18.75-18.75 0-10.503906 8.246094-18.75 18.75-18.75h112.5c10.503906 0 18.75 8.246094 18.75 18.75 0 10.5-8.246094 18.75-18.75 18.75zm0-187.5h-18.75v93.75c0 10.5-8.246094 18.75-18.75 18.75s-18.75-8.25-18.75-18.75v-93.75h-18.75c-10.503906 0-18.75-8.25-18.75-18.75 0-10.503906 8.246094-18.75 18.75-18.75h18.75v-18.75c0-10.503906 8.246094-18.75 18.75-18.75s18.75 8.246094 18.75 18.75v18.75h18.75c10.503906 0 18.75 8.246094 18.75 18.75 0 10.5-8.246094 18.75-18.75 18.75zm-431.25 225h150v-37.5h-150zm0 0"/></svg>