<?xml version="1.0" encoding="iso-8859-1"?>
<!-- Generator: Adobe Illustrator 19.0.0, SVG Export Plug-In . SVG Version: 6.00 Build 0)  -->
<svg version="1.1" id="Capa_1" xmlns="http://www.w3.org/2000/svg" xmlns:xlink="http://www.w3.org/1999/xlink" x="0px" y="0px"
	 viewBox="0 0 481.883 481.883" style="enable-background:new 0 0 481.883 481.883;" xml:space="preserve">
<g>
	<g>
		<path d="M112,128.285c-13.255,0-24,10.745-24,24c0.014,13.249,10.751,23.986,24,24c13.255,0,24-10.745,24-24
			S125.255,128.285,112,128.285z M112,160.285c-4.418,0-8-3.582-8-8c0.003-4.417,3.583-7.997,8-8c4.418,0,8,3.582,8,8
			S116.418,160.285,112,160.285z"/>
	</g>
</g>
<g>
	<g>
		<path d="M171.398,138.16l-9.313-4.82c-0.289-0.75-0.602-1.492-0.93-2.234l3.203-10.063c0.789-2.485,0.32-5.198-1.258-7.273
			c-3.498-4.602-7.594-8.716-12.18-12.234c-2.082-1.597-4.815-2.07-7.312-1.266l-9.969,3.203c-0.695-0.313-1.398-0.609-2.094-0.883
			l-4.828-9.828c-1.342-2.741-4.128-4.478-7.18-4.477h-15.086c-3.052-0.002-5.838,1.736-7.18,4.477l-4.82,9.828
			c-0.703,0.273-1.398,0.57-2.094,0.883l-9.969-3.203c-2.495-0.81-5.228-0.336-7.305,1.266c-4.59,3.516-8.689,7.631-12.188,12.234
			c-1.577,2.073-2.047,4.783-1.258,7.266l3.195,10.07c-0.32,0.727-0.625,1.461-0.906,2.195l-9.539,4.82
			c-2.692,1.363-4.39,4.123-4.391,7.141v15.164c-0.001,3.014,1.694,5.772,4.383,7.133l9.539,4.836
			c0.289,0.734,0.594,1.469,0.914,2.195l-3.195,10.063c-0.786,2.475-0.323,5.178,1.242,7.25c3.495,4.608,7.591,8.728,12.18,12.25
			c2.085,1.596,4.819,2.072,7.32,1.273l9.984-3.203c0.75,0.336,1.5,0.648,2.258,0.945l4.781,8.906
			c1.394,2.595,4.102,4.213,7.048,4.211h15.086c2.945-0.001,5.651-1.618,7.047-4.211l4.789-8.906
			c0.75-0.289,1.508-0.609,2.258-0.945l9.977,3.203c2.499,0.788,5.224,0.316,7.313-1.266c4.591-3.522,8.69-7.641,12.188-12.25
			c1.572-2.075,2.038-4.785,1.25-7.266l-3.203-10.063c0.328-0.734,0.641-1.484,0.93-2.227l9.313-4.828
			c2.654-1.374,4.32-4.113,4.32-7.102v-15.164C175.72,142.273,174.053,139.533,171.398,138.16z M159.719,155.559l-7.797,4.047
			c-1.891,0.979-3.314,2.672-3.953,4.703c-0.659,2.068-1.496,4.076-2.5,6c-0.977,1.887-1.165,4.084-0.523,6.109l2.844,8.93
			c-1.097,1.226-2.258,2.394-3.477,3.5l-8.828-2.836c-2.034-0.656-4.247-0.468-6.141,0.523c-1.912,1.003-3.907,1.842-5.961,2.508
			c-1.988,0.624-3.653,2.001-4.641,3.836l-3.984,7.406h-5.523l-3.977-7.406c-0.985-1.837-2.651-3.214-4.641-3.836
			c-2.054-0.666-4.049-1.505-5.961-2.508c-1.894-0.991-4.106-1.18-6.141-0.523l-8.836,2.836c-1.217-1.108-2.377-2.276-3.477-3.5
			l2.844-8.937c0.641-2.023,0.453-4.217-0.523-6.102c-1.004-1.924-1.841-3.932-2.5-6c-0.646-2.055-2.094-3.762-4.016-4.734
			L64,155.512v-5.336l8.008-4.047c1.925-0.975,3.375-2.684,4.023-4.742c0.66-2.073,1.496-4.086,2.5-6.016
			c0.97-1.883,1.155-4.074,0.516-6.094l-2.836-8.937c1.097-1.222,2.254-2.387,3.469-3.492l8.836,2.836
			c2.04,0.658,4.259,0.466,6.156-0.531c1.914-1.007,3.911-1.846,5.969-2.508c2.076-0.663,3.792-2.144,4.75-4.102l4.047-8.258h5.117
			l4.055,8.258c0.96,1.956,2.675,3.437,4.75,4.102c2.058,0.662,4.055,1.501,5.969,2.508c1.897,0.998,4.116,1.19,6.156,0.531
			l8.828-2.836c1.217,1.105,2.377,2.27,3.477,3.492l-2.844,8.93c-0.64,2.022-0.454,4.215,0.516,6.102
			c1.011,1.928,1.85,3.941,2.508,6.016c0.639,2.031,2.062,3.724,3.953,4.703l7.797,4.039V155.559z"/>
	</g>
</g>
<g>
	<g>
		<path d="M208,264.285c-17.673,0-32,14.327-32,32c0,17.673,14.327,32,32,32s32-14.327,32-32
			C239.982,278.619,225.666,264.303,208,264.285z M208,312.285c-8.837,0-16-7.163-16-16s7.163-16,16-16s16,7.163,16,16
			C223.989,305.117,216.832,312.274,208,312.285z"/>
	</g>
</g>
<g>
	<g>
		<path d="M275.539,280.527l-11.492-5.656c-0.406-1.047-0.844-2.086-1.312-3.125l3.75-11.758c0.796-2.483,0.329-5.198-1.25-7.273
			c-3.921-5.147-8.517-9.743-13.664-13.664c-2.075-1.58-4.79-2.047-7.273-1.25l-11.758,3.75c-1.039-0.469-2.078-0.906-3.125-1.312
			l-5.656-11.492c-1.352-2.73-4.134-4.459-7.18-4.461h-17.156c-3.046,0.003-5.828,1.731-7.18,4.461l-5.656,11.492
			c-1.047,0.406-2.086,0.844-3.125,1.312l-11.758-3.75c-2.486-0.81-5.211-0.339-7.281,1.258c-5.145,3.918-9.738,8.511-13.656,13.656
			c-1.579,2.075-2.046,4.79-1.25,7.273l3.75,11.758c-0.469,1.039-0.906,2.078-1.312,3.125l-11.492,5.656
			c-2.73,1.352-4.459,4.134-4.461,7.18v17.156c0.003,3.046,1.731,5.828,4.461,7.18l11.492,5.656
			c0.406,1.047,0.844,2.086,1.313,3.125l-3.75,11.758c-0.796,2.483-0.329,5.198,1.25,7.273c3.921,5.147,8.517,9.743,13.664,13.664
			c2.074,1.581,4.79,2.048,7.273,1.25l11.758-3.75c1.039,0.469,2.078,0.906,3.125,1.313l5.656,11.492
			c1.352,2.73,4.134,4.459,7.18,4.461h17.156c3.046-0.003,5.828-1.731,7.18-4.461l5.656-11.492c1.047-0.406,2.086-0.844,3.125-1.313
			l11.758,3.75c2.483,0.792,5.197,0.326,7.273-1.25c5.147-3.921,9.743-8.517,13.664-13.664c1.579-2.075,2.046-4.79,1.25-7.273
			l-3.75-11.758c0.469-1.039,0.906-2.078,1.313-3.125l11.492-5.656c2.73-1.352,4.458-4.133,4.461-7.18v-17.156
			C279.997,284.661,278.269,281.879,275.539,280.527z M264,299.887l-9.953,4.898c-1.953,0.967-3.428,2.688-4.086,4.766
			c-0.771,2.399-1.746,4.728-2.914,6.961c-0.984,1.89-1.172,4.095-0.523,6.125l3.398,10.672c-1.53,1.733-3.166,3.369-4.898,4.898
			l-10.672-3.398c-2.029-0.656-4.237-0.467-6.125,0.523c-2.233,1.168-4.562,2.143-6.961,2.914c-2.078,0.658-3.799,2.133-4.766,4.086
			l-4.898,9.953h-7.203l-4.898-9.953c-0.967-1.953-2.688-3.428-4.766-4.086c-2.399-0.771-4.728-1.746-6.961-2.914
			c-1.888-0.991-4.096-1.18-6.125-0.523l-10.672,3.398c-1.733-1.53-3.369-3.166-4.898-4.898l3.398-10.672
			c0.649-2.03,0.461-4.235-0.523-6.125c-1.168-2.233-2.143-4.562-2.914-6.961c-0.658-2.078-2.133-3.799-4.086-4.766L152,299.887
			v-7.203l9.953-4.898c1.953-0.967,3.428-2.688,4.086-4.766c0.771-2.399,1.746-4.728,2.914-6.961
			c0.984-1.89,1.172-4.095,0.523-6.125l-3.398-10.672c1.53-1.733,3.166-3.369,4.898-4.898l10.672,3.398
			c2.029,0.652,4.236,0.464,6.125-0.523c2.233-1.168,4.562-2.143,6.961-2.914c2.078-0.658,3.799-2.133,4.766-4.086l4.898-9.953
			h7.203l4.898,9.953c0.967,1.953,2.688,3.428,4.766,4.086c2.399,0.771,4.728,1.746,6.961,2.914
			c1.889,0.987,4.096,1.176,6.125,0.523l10.672-3.398c1.733,1.53,3.369,3.166,4.898,4.898l-3.398,10.672
			c-0.649,2.03-0.461,4.235,0.523,6.125c1.168,2.233,2.143,4.562,2.914,6.961c0.658,2.078,2.133,3.799,4.086,4.766l9.953,4.898
			V299.887z"/>
	</g>
</g>
<g>
	<g>
		<path d="M392,312.285c-22.091,0-40,17.909-40,40c0,22.091,17.909,40,40,40c22.091,0,40-17.909,40-40
			C431.974,330.204,414.081,312.311,392,312.285z M392,376.285c-13.255,0-24-10.745-24-24s10.745-24,24-24s24,10.745,24,24
			C415.986,365.534,405.249,376.271,392,376.285z"/>
	</g>
</g>
<g>
	<g>
		<path d="M475.539,334.387l-15.078-7.422c-0.648-1.75-1.383-3.492-2.188-5.219l4.93-15.43c0.798-2.489,0.328-5.211-1.258-7.289
			c-4.791-6.284-10.404-11.896-16.687-16.687c-2.077-1.587-4.8-2.057-7.289-1.258l-15.43,4.93c-1.727-0.805-3.469-1.539-5.219-2.188
			l-7.422-15.078c-1.352-2.73-4.133-4.458-7.18-4.461h-21.437c-3.046,0.003-5.828,1.731-7.18,4.461l-7.422,15.078
			c-1.75,0.648-3.492,1.383-5.219,2.188l-15.43-4.93c-2.489-0.807-5.215-0.337-7.289,1.258
			c-6.284,4.791-11.896,10.404-16.687,16.687c-1.586,2.078-2.055,4.8-1.258,7.289l4.93,15.43c-0.805,1.727-1.539,3.469-2.188,5.219
			l-15.078,7.422c-2.73,1.352-4.458,4.133-4.461,7.18v21.437c0.003,3.046,1.731,5.828,4.461,7.18l15.078,7.422
			c0.648,1.75,1.383,3.492,2.188,5.219l-4.93,15.43c-0.798,2.489-0.328,5.211,1.258,7.289c4.791,6.284,10.404,11.896,16.687,16.687
			c2.076,1.589,4.8,2.059,7.289,1.258l15.43-4.93c1.727,0.805,3.469,1.539,5.219,2.188l7.422,15.078
			c1.352,2.73,4.133,4.458,7.18,4.461h21.437c3.046-0.003,5.828-1.731,7.18-4.461l7.422-15.078c1.75-0.648,3.492-1.383,5.219-2.188
			l15.43,4.93c2.49,0.79,5.208,0.321,7.289-1.258c6.284-4.791,11.896-10.404,16.687-16.687c1.586-2.078,2.055-4.8,1.258-7.289
			l-4.93-15.43c0.805-1.727,1.539-3.469,2.188-5.219l15.078-7.422c2.73-1.352,4.458-4.133,4.461-7.18v-21.437
			C479.997,338.52,478.269,335.738,475.539,334.387z M464,358.027l-13.563,6.68c-1.955,0.968-3.431,2.692-4.086,4.773
			c-0.998,3.108-2.26,6.124-3.773,9.016c-0.984,1.893-1.172,4.1-0.523,6.133l4.601,14.39c-2.43,2.844-5.078,5.492-7.922,7.922
			l-14.39-4.602c-2.031-0.661-4.243-0.472-6.133,0.523c-2.892,1.513-5.908,2.776-9.016,3.773c-2.081,0.655-3.805,2.131-4.773,4.086
			l-6.68,13.563h-11.484l-6.68-13.563c-0.968-1.955-2.692-3.431-4.773-4.086c-3.108-0.998-6.124-2.26-9.016-3.773
			c-1.89-0.995-4.102-1.184-6.133-0.523l-14.39,4.601c-2.844-2.43-5.492-5.078-7.922-7.922l4.602-14.391
			c0.649-2.032,0.46-4.24-0.523-6.133c-1.513-2.892-2.776-5.908-3.773-9.016c-0.655-2.081-2.131-3.805-4.086-4.773L320,358.027
			v-11.484l13.563-6.68c1.955-0.968,3.431-2.692,4.086-4.773c0.998-3.108,2.26-6.124,3.773-9.016c0.984-1.893,1.172-4.1,0.523-6.133
			l-4.601-14.39c2.43-2.844,5.078-5.492,7.922-7.922l14.391,4.602c2.031,0.66,4.243,0.472,6.133-0.523
			c2.892-1.513,5.908-2.776,9.016-3.773c2.081-0.655,3.805-2.131,4.773-4.086l6.679-13.563h11.484l6.68,13.562
			c0.968,1.955,2.692,3.431,4.773,4.086c3.108,0.998,6.124,2.26,9.016,3.773c1.89,0.995,4.102,1.184,6.133,0.523l14.39-4.601
			c2.844,2.43,5.492,5.078,7.922,7.922l-4.602,14.39c-0.649,2.032-0.46,4.24,0.523,6.133c1.513,2.892,2.776,5.908,3.773,9.016
			c0.655,2.081,2.131,3.805,4.086,4.773l13.563,6.68V358.027z"/>
	</g>
</g>
<g>
	<g>
		<path d="M479.102,456.418c-30.082,5.258-60.564,7.891-91.102,7.867c-205.125,0-372-116.633-372-260
			c0-72.352,41.664-139.578,117.32-189.313l-8.781-13.375C45.391,53.629,0,127.504,0,204.285c0,152.188,174.055,276,388,276
			c31.471,0.026,62.884-2.69,93.883-8.117L479.102,456.418z"/>
	</g>
</g>
<g>
	<g>
		<path d="M192,68.285c0.15-19.751,5.702-39.085,16.055-55.906l-13.75-8.188C182.468,23.485,176.138,45.65,176,68.285
			c0,113.016,99.406,169.242,303.898,171.898l0.203-16C283.547,221.629,192,172.09,192,68.285z"/>
	</g>
</g>
<g>
	<g>
		<path d="M245.586,79.652c-10.375-18.611-9.837-41.385,1.406-59.484l-13.984-7.766c-13.88,22.884-14.453,51.446-1.5,74.867
			c22.875,42.266,87.133,74.187,159.914,79.422l1.156-15.953C325.023,145.871,265.953,117.308,245.586,79.652z"/>
	</g>
</g>
<g>
	<g>
		<rect x="408" y="152.285" width="16" height="16"/>
	</g>
</g>
<g>
	<g>
		<path d="M478.784,156.045c-0.643-1.029-1.512-1.898-2.541-2.542l-64-40l-8.484,13.563l53.148,33.219l-53.148,33.219l8.484,13.563
			l64-40C479.987,164.725,481.125,159.79,478.784,156.045z"/>
	</g>
</g>
<g>
</g>
<g>
</g>
<g>
</g>
<g>
</g>
<g>
</g>
<g>
</g>
<g>
</g>
<g>
</g>
<g>
</g>
<g>
</g>
<g>
</g>
<g>
</g>
<g>
</g>
<g>
</g>
<g>
</g>
</svg>
