<?xml version="1.0" encoding="iso-8859-1"?>
<!-- Generator: Adobe Illustrator 19.0.0, SVG Export Plug-In . SVG Version: 6.00 Build 0)  -->
<svg version="1.1" id="Capa_1" xmlns="http://www.w3.org/2000/svg" xmlns:xlink="http://www.w3.org/1999/xlink" x="0px" y="0px"
	 viewBox="0 0 439.832 439.832" style="enable-background:new 0 0 439.832 439.832;" xml:space="preserve">
<path style="fill:#FFE05F;" d="M96.4,397.101v-29.28c-7.456-1.967-14.594-4.984-21.2-8.96l-20.8,21.12l-28.8-28.8l21.04-21.04
	c-3.847-6.576-6.755-13.658-8.64-21.04H8.16v-41.12H38c1.892-7.38,4.799-14.461,8.64-21.04l-21.04-20.8l28.8-28.8l20.8,20.88
	c6.609-3.971,13.746-6.988,21.2-8.96v-29.28h40.72v28.96c7.613,1.875,14.915,4.838,21.68,8.8l20.32-20.32l28.8,28.8L188,246.3
	c3.99,6.76,6.981,14.063,8.88,21.68h28.48v40.72h-28.48c-1.866,7.754-4.858,15.193-8.88,22.08l20.16,20.16l-29.04,29.04
	l-20.32-20.32c-6.767,3.958-14.069,6.921-21.68,8.8v28.96L96.4,397.101z M116.8,251.981c-20.324,0-36.8,16.476-36.8,36.8
	c0,20.324,16.476,36.8,36.8,36.8s36.8-16.476,36.8-36.8l0,0C153.556,268.475,137.106,252.025,116.8,251.981z"/>
<path style="fill:#FFA757;" d="M318.4,235.101c-7.709-0.335-15.332-1.762-22.64-4.24l-16,24.8l-34.16-22l16-24.96
	c-5.144-5.61-9.479-11.911-12.88-18.72l-28.72,6l-8.72-40l29.12-6.32c0.261-7.612,1.58-15.151,3.92-22.4l-25.04-16l22-34.24l24.8,16
	c5.608-5.293,11.937-9.764,18.8-13.28l-6.24-28.64l40-8.72l5.36,28.72c7.833,0.215,15.593,1.562,23.04,4l15.52-24l34.24,22
	l-15.44,24c5.558,5.581,10.274,11.941,14,18.88l27.76-6.08l8.72,40l-27.84,6.08c-0.271,7.925-1.7,15.768-4.24,23.28l24,15.36
	l-22,34.32l-24-15.52c-5.785,5.308-12.305,9.754-19.36,13.2l6.16,28.32l-40,8.64L318.4,235.101z M321.36,116.461
	c-20.324-0.019-36.816,16.441-36.835,36.765c-0.019,20.324,16.441,36.816,36.765,36.835s36.816-16.441,36.835-36.765
	c0.003-2.648-0.281-5.288-0.845-7.875c-3.704-16.847-18.591-28.876-35.84-28.96L321.36,116.461z"/>
<g>
	<path style="fill:#3F342B;" d="M225.36,259.981h-22.48c-1.417-4.285-3.155-8.457-5.2-12.48l16-16c3.102-3.12,3.102-8.16,0-11.28
		l-28.8-28.8c-3.12-3.102-8.16-3.102-11.28,0l-16,16c-3.951-1.955-8.043-3.613-12.24-4.96v-22.48c0-4.418-3.582-8-8-8H96.4
		c-4.418,0-8,3.582-8,8v23.36c-4.033,1.372-7.963,3.029-11.76,4.96L60,191.741c-3.12-3.102-8.16-3.102-11.28,0L20,220.46
		c-3.102,3.12-3.102,8.16,0,11.28l16.8,16.8c-1.862,3.698-3.466,7.521-4.8,11.44H8c-4.418,0-8,3.582-8,8v40.72c0,4.418,3.582,8,8,8
		h24c1.3,3.972,2.877,7.848,4.72,11.6L20,345.26c-3.102,3.12-3.102,8.16,0,11.28l28.8,28.8c3.12,3.102,8.16,3.102,11.28,0
		l16.56-16.56c3.798,1.929,7.728,3.587,11.76,4.96v23.36c0,4.418,3.582,8,8,8c0,0,0,0,0,0h40.72c4.418,0,8-3.582,8-8v-22.88
		c4.197-1.349,8.288-3.006,12.24-4.96l16,16c3.12,3.102,8.16,3.102,11.28,0l28.8-28.8c3.102-3.12,3.102-8.16,0-11.28l-16-16
		c2.048-4.022,3.786-8.194,5.2-12.48h22.48c4.418,0,8-3.582,8-8v-40.72C233.122,263.654,229.684,260.11,225.36,259.981
		L225.36,259.981z M217.36,300.701h-20.48c-3.742-0.118-7.066,2.374-8,6c-1.702,6.912-4.397,13.541-8,19.68
		c-1.883,3.144-1.388,7.166,1.2,9.76l14.48,14.48l-17.52,17.44l-14.64-14.64c-2.562-2.575-6.537-3.1-9.68-1.28
		c-6.115,3.594-12.716,6.289-19.6,8c-3.657,0.903-6.19,4.234-6.08,8v20.96H104.4v-21.28c0.118-3.742-2.374-7.066-6-8
		c-6.72-1.747-13.158-4.441-19.12-8c-3.144-1.883-7.166-1.388-9.76,1.2l-15.2,15.2l-17.44-17.28L52,335.581
		c2.575-2.562,3.1-6.537,1.28-9.68c-3.54-5.915-6.233-12.297-8-18.96c-0.934-3.626-4.258-6.118-8-6H16.16v-24.96H38
		c3.742,0.118,7.066-2.374,8-6c1.772-6.661,4.464-13.043,8-18.96c1.561-3.261,0.741-7.163-2-9.52l-15.12-15.36l17.52-17.44
		l15.2,15.2c2.594,2.588,6.616,3.083,9.76,1.2c5.966-3.551,12.403-6.245,19.12-8c3.594-0.965,6.047-4.281,5.92-8v-21.12h24.72v20.96
		c-0.11,3.766,2.423,7.097,6.08,8c6.884,1.71,13.485,4.405,19.6,8c3.143,1.82,7.118,1.295,9.68-1.28l14.64-14.72l17.52,17.44
		l-14.56,14.56c-2.588,2.594-3.083,6.616-1.2,9.76c3.607,6.137,6.302,12.767,8,19.68c0.934,3.626,4.258,6.118,8,6h20.48
		L217.36,300.701z"/>
	<path style="fill:#3F342B;" d="M116.8,243.981c-24.742,0-44.8,20.058-44.8,44.8c0,24.742,20.058,44.8,44.8,44.8
		s44.8-20.058,44.8-44.8l0,0C161.556,264.056,141.524,244.025,116.8,243.981z M116.8,317.581c-15.906,0-28.8-12.894-28.8-28.8
		c0-15.906,12.894-28.8,28.8-28.8s28.8,12.894,28.8,28.8l0,0c-0.132,15.812-12.987,28.561-28.8,28.56V317.581z"/>
	<path style="fill:#3F342B;" d="M430.96,108.541c-0.956-4.304-5.214-7.023-9.52-6.08l-21.92,4.8c-2.381-3.879-5.055-7.57-8-11.04
		L404,77.181c2.379-3.713,1.306-8.65-2.4-11.04l-34.4-22.16c-3.713-2.379-8.65-1.306-11.04,2.4l-12.32,19.2
		c-4.285-1.071-8.644-1.82-13.04-2.24l-4.88-22.4c-0.99-4.306-5.284-6.994-9.589-6.003c-0.111,0.025-0.221,0.053-0.331,0.083
		l-40,8.72c-4.304,0.956-7.023,5.214-6.08,9.52l5.6,22.72c-3.663,2.203-7.165,4.662-10.48,7.36l-19.76-12.64
		c-3.713-2.379-8.65-1.306-11.04,2.4L212,107.421c-2.379,3.713-1.306,8.65,2.4,11.04l20,12.8c-1.006,4.051-1.728,8.168-2.16,12.32
		l-23.28,5.12c-4.304,0.956-7.023,5.214-6.08,9.52l8.72,40c0.956,4.304,5.214,7.023,9.52,6.08l23.28-5.04
		c2.295,3.533,4.835,6.901,7.6,10.08l-12.8,20c-2.379,3.713-1.306,8.65,2.4,11.04l34.24,22c3.713,2.379,8.65,1.306,11.04-2.4
		l12.64-19.76c4.126,1.073,8.323,1.848,12.56,2.32l4.96,22.8c0.805,3.753,4.162,6.405,8,6.32h1.68l40-8.64
		c4.058-1.305,6.38-5.562,5.28-9.68l-4.88-22.4c3.802-2.213,7.438-4.7,10.88-7.44l19.44,12.48c3.713,2.379,8.65,1.306,11.04-2.4
		l22-34.32c2.458-3.671,1.475-8.64-2.196-11.098c-0.093-0.062-0.188-0.123-0.284-0.182l-18.96-12.16
		c1.135-4.36,1.937-8.799,2.4-13.28l21.92-4.8c4.337-0.845,7.168-5.045,6.323-9.382c-0.025-0.127-0.052-0.253-0.083-0.378
		L430.96,108.541z M402.32,148.541c-3.551,0.758-6.146,3.813-6.32,7.44c-0.246,7.163-1.54,14.252-3.84,21.04
		c-1.164,3.479,0.188,7.305,3.28,9.28l17.28,11.04l-13.36,20.8l-17.44-11.2c-3.073-1.967-7.088-1.605-9.76,0.88
		c-5.211,4.79-11.084,8.805-17.44,11.92c-3.313,1.612-5.097,5.278-4.32,8.88l4.48,20.48l-24,5.28l-4.56-20.8
		c-0.758-3.551-3.813-6.146-7.44-6.32c-6.948-0.307-13.816-1.6-20.4-3.84c-0.826-0.272-1.691-0.407-2.56-0.4
		c-2.72,0.005-5.251,1.391-6.72,3.68l-11.6,18.08l-20.8-13.36l11.2-18.4c1.967-3.073,1.605-7.088-0.88-9.76
		c-4.659-5.056-8.591-10.738-11.68-16.88c-1.638-3.282-5.298-5.03-8.88-4.24l-21.28,4.64l-5.28-24l21.28-4.64
		c3.579-0.766,6.181-3.863,6.32-7.52c0.506-6.946,1.987-13.787,4.4-20.32c1.123-3.456-0.224-7.234-3.28-9.2l-18.24-11.68l13.36-20.8
		l17.6,11.36c3.091,2.009,7.154,1.645,9.84-0.88c5.058-4.781,10.768-8.821,16.96-12c3.217-1.655,4.923-5.263,4.16-8.8l-4.56-20.8
		l24-5.28l4.48,20.48c0.805,3.753,4.162,6.405,8,6.32c7.071,0.188,14.077,1.4,20.8,3.6c3.456,1.123,7.234-0.224,9.2-3.28l11.2-17.44
		l20.8,13.36l-11.12,17.28c-1.988,3.109-1.591,7.174,0.96,9.84c4.775,5.235,8.763,11.137,11.84,17.52
		c1.638,3.282,5.298,5.03,8.88,4.24l20-4.32l5.28,24L402.32,148.541z"/>
	<path style="fill:#3F342B;" d="M321.44,108.461c-24.742-0.009-44.807,20.041-44.817,44.783s20.041,44.808,44.783,44.817
		c24.742,0.009,44.807-20.041,44.817-44.783c0.001-3.206-0.342-6.404-1.023-9.537C360.778,123.12,342.529,108.407,321.44,108.461z
		 M327.52,181.421c-15.505,3.142-30.702-6.599-34.32-22c-3.37-15.547,6.466-30.891,22-34.32c2.025-0.43,4.09-0.644,6.16-0.64
		c15.906-0.023,28.819,12.852,28.842,28.758c0.02,13.595-9.469,25.352-22.762,28.202H327.52z"/>
</g>
<g>
</g>
<g>
</g>
<g>
</g>
<g>
</g>
<g>
</g>
<g>
</g>
<g>
</g>
<g>
</g>
<g>
</g>
<g>
</g>
<g>
</g>
<g>
</g>
<g>
</g>
<g>
</g>
<g>
</g>
</svg>
