<svg height="464pt" viewBox="0 0 464 464.008" width="464pt" xmlns="http://www.w3.org/2000/svg"><path d="m192.003906 96h-16v-40h-32v40h-32v-72h-32v72h-32v-96h-32v96h-15.99999975v16h191.99999975zm0 0"/><path d="m356.691406 0-106.34375 106.34375 11.3125 11.3125 101.65625-101.65625h100.6875v-16zm0 0"/><path d="m368.003906 32h96v16h-96zm0 0"/><path d="m368.003906 64h96v16h-96zm0 0"/><path d="m448.003906 96h16v16h-16zm0 0"/><path d="m368.003906 96h64v16h-64zm0 0"/><path d="m226.699219 391.832031c-9.464844-.617187-18.429688-3.007812-26.695313-6.734375v13.34375c1.824219 3.949219 9.71875 17.566406 32 17.566406 22.449219 0 30.265625-13.71875 32-17.542968v-13.167969c-9.960937 4.359375-20.75 6.703125-31.917968 6.703125-1.785157 0-3.585938-.054688-5.386719-.167969zm0 0"/><path d="m296.003906 262.199219c0-3.75-2.574218-6.933594-6.273437-7.757813-12.269531-2.722656-23.460938-8.855468-32.351563-17.753906l-1.375-1.375-1.375 1.375c-12.457031 12.457031-29.007812 19.3125-46.625 19.3125h-32c-4.414062 0-8 3.585938-8 8h128zm0 0"/><path d="m293.933594 328h-123.402344c7.320312 26.296875 29.824219 46.089844 57.199219 47.855469 17.929687 1.136719 34.992187-4.925781 48.035156-17.152344 9.039063-8.472656 15.191406-19.0625 18.167969-30.703125zm0 0"/><path d="m296.003906 280h-128v29.527344c0 .832031.089844 1.640625.113282 2.472656h127.886718zm0 0"/><path d="m328.003906 207.328125c0-14.816406-10.007812-27.808594-24.335937-31.59375l-2.550781-.679687-4.097657-5.125c-17.253906-21.5625-42.992187-33.929688-70.597656-33.929688-49.859375 0-90.417969 40.566406-90.417969 90.414062v45.792969c4.671875-3.535156 10.054688-6.183593 16-7.390625v-.808594c0-13.230468 10.769532-24 24-24h32c13.335938 0 25.878906-5.191406 35.3125-14.625l12.6875-12.695312 12.6875 12.6875c6.738282 6.738281 15.199219 11.386719 24.496094 13.441406 11.082031 2.457032 18.816406 12.078125 18.816406 23.382813v2.617187c5.945313 1.214844 11.328125 3.855469 16 7.390625zm0 0"/><path d="m312.003906 312c0 5.0625-.542968 10.070312-1.488281 14.992188 10.054687-2.855469 17.488281-12.023438 17.488281-22.992188 0-10.414062-6.710937-19.214844-16-22.527344zm0 0"/><path d="m361.507812 424.929688-85.0625-15.953126c-5.210937 8.679688-17.816406 23.023438-44.441406 23.023438s-39.230468-14.34375-44.441406-23.023438l-85.0625 15.953126c-19.976562 3.75-36.382812 18.054687-42.816406 37.335937l-.574219 1.742187h345.796875l-.582031-1.742187c-6.433594-19.289063-22.832031-33.59375-42.816407-37.335937zm0 0"/><path d="m136.003906 304c0 11.113281 7.625 20.390625 17.894532 23.113281-1.199219-5.679687-1.894532-11.546875-1.894532-17.578125v-28.054687c-9.289062 3.3125-16 12.105469-16 22.519531zm0 0"/><path d="m104.003906 240h-103.99999975v144h103.99999975zm-16 128h-72v-16h72zm0-32h-72v-16h72zm0-32h-72v-16h72zm0-32h-72v-16h72zm0 0"/><path d="m408.003906 168h16v24h-16zm0 0"/><path d="m376.402344 187.726562 11.316406-11.3125 16.96875 16.96875-11.3125 11.3125zm0 0"/><path d="m368.003906 208h24v16h-24zm0 0"/><path d="m376.40625 244.28125 16.972656-16.96875 11.3125 11.3125-16.96875 16.96875zm0 0"/><path d="m408.003906 240h16v24h-16zm0 0"/><path d="m427.3125 238.625 11.3125-11.3125 16.972656 16.96875-11.316406 11.316406zm0 0"/><path d="m440.003906 208h24v16h-24zm0 0"/><path d="m427.316406 193.378906 16.96875-16.96875 11.3125 11.3125-16.96875 16.96875zm0 0"/><path d="m408.003906 280h16v56h-16zm0 0"/><path d="m408.003906 352h16v16h-16zm0 0"/></svg>